<?xml version="1.0" encoding="utf-8"?>
<!-- Generator: Adobe Illustrator 23.1.0, SVG Export Plug-In . SVG Version: 6.00 Build 0)  -->
<svg version="1.1" id="Слой_1" xmlns="http://www.w3.org/2000/svg" xmlns:xlink="http://www.w3.org/1999/xlink" x="0px" y="0px"
	 viewBox="0 0 52.8 39.8" style="enable-background:new 0 0 52.8 39.8;" xml:space="preserve">
<style type="text/css">
	.st0{fill:#FFFFFF;stroke:#C0301C;stroke-miterlimit:10;}
</style>
<path id="fa-code" class="st0" d="M16.5,32.6c0.4-0.4,0.4-0.9,0-1.3c0,0,0,0,0,0L5.2,19.9L16.5,8.5c0.4-0.4,0.4-1,0-1.3c0,0,0,0,0,0
	l-1.4-1.4c-0.3-0.4-0.9-0.4-1.3,0c0,0,0,0,0,0L0.3,19.2c-0.4,0.4-0.4,1,0,1.3c0,0,0,0,0,0L13.7,34c0.3,0.4,0.9,0.4,1.3,0
	c0,0,0,0,0,0L16.5,32.6z M33.6,1.7c0.1-0.5-0.1-1-0.6-1.2L31.1,0c-0.5-0.1-1,0.2-1.1,0.6L19.2,38.1c-0.1,0.5,0.1,1,0.6,1.2l1.8,0.5
	c0.5,0.1,1-0.1,1.1-0.6c0,0,0,0,0,0L33.6,1.7z M52.5,20.5c0.4-0.4,0.4-1,0-1.3c0,0,0,0,0,0L39.1,5.7c-0.3-0.4-0.9-0.4-1.3,0
	c0,0,0,0,0,0l-1.4,1.4c-0.4,0.4-0.4,1,0,1.3c0,0,0,0,0,0l11.3,11.4L36.3,31.3c-0.4,0.4-0.4,0.9,0,1.3c0,0,0,0,0,0l1.4,1.4
	c0.3,0.4,0.9,0.4,1.3,0c0,0,0,0,0,0L52.5,20.5z"/>
</svg>
